HIERARCHY
ROOT Hips
{
	OFFSET	0.000000	0.000000	0.000000
	CHANNELS 6 Xposition Yposition Zposition Zrotation Xrotation Yrotation
	JOINT LeftHip
	{
		OFFSET	4.740440	-3.195970	-0.322709
		CHANNELS 3 Zrotation Xrotation Yrotation
		JOINT LeftKnee
		{
			OFFSET	-1.605680	-15.592300	1.005510
			CHANNELS 3 Zrotation Xrotation Yrotation
			JOINT LeftAnkle
			{
				OFFSET	-0.632401	-16.421000	-1.413730
				CHANNELS 3 Zrotation Xrotation Yrotation
				End Site
				{
					OFFSET	0.008423	-2.933000	-1.776750
				}
			}
		}
	}
	JOINT RightHip
	{
		OFFSET	-4.740440	-3.195970	-0.322709
		CHANNELS 3 Zrotation Xrotation Yrotation
		JOINT RightKnee
		{
			OFFSET	1.605680	-15.592300	1.005510
			CHANNELS 3 Zrotation Xrotation Yrotation
			JOINT RightAnkle
			{
				OFFSET	0.632401	-16.421000	-1.413730
				CHANNELS 3 Zrotation Xrotation Yrotation
				End Site
				{
					OFFSET	-0.008423	-2.933000	-1.776750
				}
			}
		}
	}
	JOINT Chest
	{
		OFFSET	0.000000	3.468200	0.078401
		CHANNELS 3 Zrotation Xrotation Yrotation
		JOINT LeftCollar
		{
			OFFSET	3.857650	15.070700	-0.011583
			CHANNELS 3 Zrotation Xrotation Yrotation
			JOINT LeftShoulder
			{
				OFFSET	3.979720	-1.940530	-0.165223
				CHANNELS 3 Zrotation Xrotation Yrotation
				JOINT LeftElbow
				{
					OFFSET	0.615844	-10.986600	-0.673886
					CHANNELS 3 Zrotation Xrotation Yrotation
					JOINT LeftWrist
					{
						OFFSET	0.826843	-10.854500	1.034220
						CHANNELS 3 Zrotation Xrotation Yrotation
						End Site
						{
							OFFSET	-1.679080	-8.456540	0.936217
						}
					}
				}
			}
		}
		JOINT RightCollar
		{
			OFFSET	-3.857650	15.070700	-0.011583
			CHANNELS 3 Zrotation Xrotation Yrotation
			JOINT RightShoulder
			{
				OFFSET	-3.979720	-1.940530	-0.165223
				CHANNELS 3 Zrotation Xrotation Yrotation
				JOINT RightElbow
				{
					OFFSET	-0.615845	-10.986600	-0.673886
					CHANNELS 3 Zrotation Xrotation Yrotation
					JOINT RightWrist
					{
						OFFSET	-0.826843	-10.854500	1.034220
						CHANNELS 3 Zrotation Xrotation Yrotation
						End Site
						{
							OFFSET	1.679080	-8.456540	0.936217
						}
					}
				}
			}
		}
		JOINT Neck
		{
			OFFSET	0.000000	15.101400	0.055730
			CHANNELS 3 Zrotation Xrotation Yrotation
			JOINT Head
			{
				OFFSET	0.000000	4.185120	1.488260
				CHANNELS 3 Zrotation Xrotation Yrotation
				End Site
				{
					OFFSET	0.000000	7.773420	-0.106016
				}
			}
		}
	}
}
MOTION
Frames:     7
Frame Time: 0.016667
-2.564557	37.355972	-3.986450	4.919075	-13.960017	-16.239717	-1.669665	10.138545	8.418064	-3.275417	8.330859	13.085492	-2.511457	-4.018842	2.581795	-19.350615	-7.663083	-1.768282	2.029440	24.928295	2.694250	8.391237	-6.230303	5.794788	-10.246672	10.932874	-3.116724	-4.140563	7.219716	0.925469	4.832510	4.153702	7.611062	0.179556	-8.533766	-8.134818	-11.824122	-15.830119	11.428628	-3.376192	5.158700	5.326158	1.977237	-3.189321	1.998266	1.723710	-1.208787	2.869569	-7.180312	-20.043657	-23.028059	-2.037456	4.582368	-13.815184	1.256520	-0.214182	-40.542690	
-2.564557	37.355972	-3.986450	4.919075	-13.960017	-16.239717	-1.669665	10.138545	8.418064	-3.275417	8.330859	13.085492	-2.511457	-4.018842	2.581795	-19.350615	-7.663083	-1.768282	2.029440	24.928295	2.694250	8.391237	-6.230303	5.794788	-10.246672	10.932874	-3.116724	-4.141106	7.210631	0.918968	4.832776	4.163298	7.616860	0.182394	-8.528565	-8.133084	-11.826852	-15.835277	11.426112	-3.376688	5.157498	5.325030	1.978019	-3.188238	1.991212	1.723770	-1.208431	2.877757	-7.181356	-20.037012	-23.029436	-2.063679	4.604457	-13.844478	1.270644	-0.289928	-40.524429	
-2.564557	37.355972	-3.986450	4.919075	-13.960017	-16.239717	-1.669665	10.138545	8.418064	-3.275417	8.330859	13.085492	-2.511457	-4.018842	2.581795	-19.350615	-7.663083	-1.768282	2.029440	24.928295	2.694250	8.391237	-6.230303	5.794788	-10.252439	10.925292	-3.118232	-4.138439	7.192042	0.903763	4.834152	4.191000	7.633288	0.190595	-8.513559	-8.128054	-11.836346	-15.841878	11.392663	-3.380096	5.144952	5.308970	1.989571	-3.168451	1.988544	1.723938	-1.207471	2.899660	-7.184678	-20.015783	-23.033804	-2.083992	4.635901	-13.864008	1.251756	-0.486235	-40.541840	
-2.564524	37.355850	-3.986036	4.916366	-13.959443	-16.244730	-1.667759	10.138600	8.422494	-3.275417	8.330859	13.085492	-2.511457	-4.018842	2.581795	-19.347368	-7.664353	-1.764073	2.029440	24.928295	2.694250	8.391237	-6.230303	5.794788	-10.257088	10.916131	-3.115541	-4.133579	7.192249	0.901372	4.834491	4.199929	7.638639	0.193176	-8.508840	-8.126471	-11.839412	-15.843412	11.380446	-3.377189	5.147161	5.306301	1.993257	-3.162089	1.988795	1.723988	-1.207209	2.905581	-7.185822	-20.008476	-23.035297	-2.080206	4.646342	-13.862029	1.238155	-0.544677	-40.553650	
-2.564404	37.355392	-3.984454	4.906130	-13.957214	-16.263861	-1.660579	10.138758	8.439432	-3.275417	8.330859	13.085492	-2.511457	-4.018842	2.581795	-19.335064	-7.669268	-1.747996	2.029440	24.928295	2.694250	8.391237	-6.230303	5.794788	-10.254749	10.879466	-3.104647	-4.132676	7.202575	0.893208	4.834326	4.224935	7.654215	0.195894	-8.503870	-8.124816	-11.843656	-15.839528	11.350075	-3.382943	5.162721	5.297697	2.003605	-3.143822	2.000066	1.724033	-1.206939	2.911859	-7.189192	-19.986980	-23.039688	-2.096165	4.705078	-13.851380	1.230913	-0.676893	-40.584209	
-2.564365	37.355232	-3.983915	4.902647	-13.956455	-16.270374	-1.658138	10.138813	8.445200	-3.275417	8.330859	13.085492	-2.511457	-4.018842	2.581795	-19.330877	-7.670938	-1.742520	2.029440	24.928295	2.694250	8.391237	-6.230303	5.794788	-10.252999	10.867762	-3.100770	-4.132721	7.206328	0.890458	4.833801	4.232381	7.659104	0.195894	-8.503870	-8.124816	-11.855608	-15.836087	11.338500	-3.385497	5.167833	5.294953	2.006751	-3.138191	2.005456	1.724033	-1.206939	2.911859	-7.190222	-19.980444	-23.041042	-2.106170	4.729236	-13.847579	1.228699	-0.742586	-40.598030	
-2.564237	37.354721	-3.982162	4.891314	-13.953986	-16.291597	-1.650197	10.138990	8.463995	-3.275417	8.330859	13.085492	-2.511457	-4.018842	2.581795	-19.317244	-7.676385	-1.724677	2.029440	24.928295	2.694250	8.391237	-6.230303	5.794788	-10.244776	10.820992	-3.089456	-4.135286	7.229959	0.884716	4.831446	4.253505	7.673441	0.195894	-8.503870	-8.124816	-11.879208	-15.816589	11.221710	-3.395688	5.195862	5.290150	2.015377	-3.122763	2.020213	1.724033	-1.206939	2.911859	-7.192522	-19.958048	-23.024508	-2.133785	4.791711	-13.833662	1.207484	-0.936019	-40.646671	
